<?xml version="1.0" encoding="utf-8"?>
<!-- Generator: Adobe Illustrator 24.0.1, SVG Export Plug-In . SVG Version: 6.00 Build 0)  -->
<svg version="1.1" id="Camada_1" xmlns="http://www.w3.org/2000/svg" xmlns:xlink="http://www.w3.org/1999/xlink" x="0px" y="0px"
	 viewBox="0 0 1080 1080" style="enable-background:new 0 0 1080 1080;" xml:space="preserve">
<style type="text/css">
	.st0{display:none;fill:#FF683F;}
	.st1{fill:url(#SVGID_1_);}
	.st2{fill:url(#SVGID_2_);}
</style>
<path class="st0" d="M783,492.5c0-77.04-62.46-139.5-139.5-139.5S504,415.46,504,492.5S566.46,632,643.5,632H783V492.5z M643.5,594
	C587.45,594,542,548.55,542,492.5S587.45,391,643.5,391S745,436.45,745,492.5V594H643.5z"/>
<path class="st0" d="M484.5,635c77.04,0,139.5-62.46,139.5-139.5S561.54,356,484.5,356S345,418.46,345,495.5V635H484.5z M383,495.5
	c0-56.05,45.45-101.5,101.5-101.5S586,439.45,586,495.5S540.55,597,484.5,597H383V495.5z"/>
<linearGradient id="SVGID_1_" gradientUnits="userSpaceOnUse" x1="695.948" y1="132.9743" x2="722.373" y2="593.21" gradientTransform="matrix(1 0 0 1 24.6457 59.4998)">
	<stop  offset="0" style="stop-color:#FF6F47"/>
	<stop  offset="1" style="stop-color:#F53500"/>
</linearGradient>
<path class="st1" d="M739.36,232.13c-63.44,0-122.08,20.57-169.62,55.41c16.27,9.77,31.48,21.12,45.45,33.82
	c6.28,5.71,12.31,11.7,18.07,17.94c31.1-18.37,67.37-28.91,106.1-28.91c41.94,0,80.98,12.35,113.71,33.61c0,0,0,0.01,0.01,0.01
	c1.05,0.68,2.1,1.38,3.14,2.08c0.04,0.04,0.09,0.07,0.14,0.1c2.04,1.38,4.05,2.79,6.04,4.23c4.06,2.97,8.01,6.07,11.84,9.31
	c3.55,2.99,7,6.11,10.34,9.33c1.21,1.17,2.4,2.35,3.58,3.55c0.62,0.61,1.22,1.23,1.82,1.86c0.6,0.63,1.2,1.26,1.79,1.89
	c35.11,37.4,56.62,87.72,56.62,143.05v209.03H739.36c-22.73,0-44.63-3.64-65.12-10.34c-0.73-0.24-1.46-0.48-2.19-0.73
	c-1.46-0.5-2.91-1.01-4.35-1.53c-2.37-0.87-4.72-1.78-7.06-2.73c-1.62-0.66-3.23-1.34-4.83-2.04c-1.6-0.7-3.19-1.42-4.77-2.16
	c-0.08-0.04-0.16-0.08-0.25-0.12c-4.51-2.11-8.93-4.39-13.26-6.8c-2.08-1.16-4.14-2.36-6.17-3.6c-0.12-0.08-0.24-0.15-0.37-0.22
	c-5.81-3.52-11.43-7.33-16.85-11.39c-0.09-0.06-0.17-0.13-0.26-0.19c-21.9-16.47-40.46-37.13-54.47-60.8
	c-18.47-31.17-29.07-67.54-29.07-106.38c0-25.64,4.62-50.21,13.08-72.91c3.51-9.44,7.68-18.55,12.46-27.29
	c13.23-24.16,31.09-45.43,52.39-62.6c-4.08-5.6-8.36-11.05-12.83-16.34c-12.47-14.76-26.4-28.24-41.57-40.22
	c-20.03,16.94-37.7,36.58-52.46,58.36c-31.14,45.92-49.33,101.34-49.33,161c0,63.16,20.39,121.57,54.94,168.98
	c15.48,21.25,33.8,40.29,54.41,56.56c0.1,0.09,0.2,0.17,0.3,0.24c9.74,7.68,20,14.74,30.7,21.12
	c42.99,25.65,93.24,40.38,146.93,40.38h287.29V519.41C1026.65,360.76,898.02,232.13,739.36,232.13z"/>
<linearGradient id="SVGID_2_" gradientUnits="userSpaceOnUse" x1="325.255" y1="152.1935" x2="351.68" y2="612.4287" gradientTransform="matrix(1 0 0 1 24.6457 59.4998)">
	<stop  offset="0" style="stop-color:#FF6F47"/>
	<stop  offset="1" style="stop-color:#F53500"/>
</linearGradient>
<path class="st2" d="M632.59,654.77c19.59-38.83,30.62-82.72,30.62-129.18c0-63.1-20.35-121.45-54.84-168.84
	c-0.03-0.05-0.07-0.1-0.1-0.14c-4.08-5.6-8.36-11.05-12.83-16.34c-12.47-14.76-26.4-28.24-41.57-40.22
	c-30.37-24-65.7-41.99-104.21-52.18c-23.53-6.24-48.24-9.56-73.73-9.56c-158.66,0-287.28,128.63-287.28,287.28v287.28h287.28
	c70.71,0,135.45-25.55,185.5-67.92c20.02-16.95,37.69-36.59,52.45-58.36c-21.9-16.47-40.46-37.13-54.47-60.8
	c-13.23,24.16-31.09,45.43-52.39,62.6c-35.85,28.91-81.45,46.22-131.09,46.22H166.9V525.59c0-115.43,93.6-209.03,209.03-209.03
	c47.08,0,90.54,15.58,125.48,41.85c19.94,14.99,37.1,33.46,50.6,54.51c1.33,2.07,2.62,4.17,3.87,6.29c0.04,0.06,0.08,0.12,0.11,0.18
	c18.4,31.13,28.96,67.43,28.96,106.2c0,24.02-4.05,47.1-11.52,68.58C588.83,618.17,609,638.82,632.59,654.77z"/>
</svg>
