<?xml version="1.0" encoding="utf-8"?>
<!-- Generator: Adobe Illustrator 24.0.1, SVG Export Plug-In . SVG Version: 6.00 Build 0)  -->
<svg version="1.1" id="Camada_1" xmlns="http://www.w3.org/2000/svg" xmlns:xlink="http://www.w3.org/1999/xlink" x="0px" y="0px"
	 viewBox="0 0 256 256" style="enable-background:new 0 0 256 256;" xml:space="preserve">
<style type="text/css">
	.st0{fill:#FF683F;}
</style>
<g>
	<path class="st0" d="M172.88,48.39c-13.35,0-25.93,3.31-36.96,9.15c6.1,4.64,11.59,10.06,16.29,16.12
		c0.02,0.03,0.05,0.06,0.07,0.09c6.4-2.46,13.34-3.8,20.6-3.8c31.79,0,57.57,25.78,57.57,57.57v57.57h-57.57
		c-7.25,0-14.19-1.34-20.58-3.79c-2.83-1.08-5.55-2.38-8.14-3.88c-0.01,0-0.01,0-0.02-0.01c-6.29-3.63-11.84-8.42-16.34-14.08
		c-7.82-9.83-12.5-22.28-12.5-35.81c0-1.52,0.06-3.04,0.18-4.53c0.03-0.45,0.07-0.9,0.12-1.35c1.14-11.23,5.51-21.51,12.17-29.89
		c4.5-5.66,10.03-10.46,16.32-14.09c0.01-0.01,0.03-0.02,0.04-0.02c-0.02-0.03-0.04-0.05-0.06-0.07
		c-4.69-5.75-10.18-10.82-16.29-15.06c-0.01,0-0.02,0.01-0.03,0.02c-6.13,4.26-11.63,9.37-16.32,15.15
		c-11.06,13.61-17.68,30.96-17.68,49.85c0,18.92,6.64,36.29,17.73,49.91c4.7,5.78,10.2,10.88,16.34,15.14
		c2.6,1.81,5.32,3.46,8.13,4.95c11.02,5.83,23.59,9.13,36.93,9.13H252v-79.12C252,83.82,216.57,48.39,172.88,48.39z"/>
	<path class="st0" d="M148.31,171.77c8.52-12.62,13.5-27.84,13.5-44.22c0-16.46-5.03-31.75-13.64-44.42v0
		c-1.28-1.89-2.65-3.72-4.09-5.49c-0.02-0.02-0.04-0.05-0.06-0.07c-4.69-5.75-10.17-10.83-16.28-15.07
		c-8.58-5.95-18.39-10.26-28.98-12.45c-0.34-0.07-0.68-0.14-1.03-0.2c-0.39-0.08-0.78-0.15-1.18-0.22c-0.28-0.05-0.57-0.1-0.85-0.14
		c-0.1-0.02-0.2-0.03-0.3-0.05c-0.52-0.08-1.03-0.16-1.55-0.24c0,0-0.01,0-0.01,0c-0.46-0.06-0.91-0.12-1.37-0.18
		c-3.21-0.4-6.48-0.6-9.8-0.6c-43.7,0-79.12,35.43-79.12,79.12v79.13h79.12c15.22,0,29.44-4.3,41.51-11.75
		c0.81-0.5,1.6-1.01,2.38-1.53c0.2-0.13,0.4-0.27,0.6-0.4c0.2-0.14,0.4-0.28,0.6-0.41c0.01-0.01,0.02-0.01,0.03-0.02
		c0.23-0.16,0.46-0.32,0.68-0.48c0.39-0.28,0.77-0.55,1.16-0.84s0.76-0.57,1.14-0.86c0.31-0.24,0.62-0.48,0.92-0.72
		c0.29-0.23,0.57-0.45,0.86-0.68c4.24-3.45,8.12-7.33,11.57-11.58c0.02-0.02,0.03-0.04,0.05-0.06c-6.3-3.63-11.84-8.42-16.35-14.07
		c-0.01,0.02-0.03,0.04-0.04,0.05c-4.5,5.66-10.03,10.46-16.32,14.09c-8.47,4.9-18.3,7.7-28.79,7.7H25.12v-57.57
		c0-31.79,25.78-57.57,57.57-57.57c10.47,0,20.28,2.79,28.74,7.68c6.28,3.62,11.8,8.4,16.3,14.03c0.01,0.01,0.03,0.03,0.04,0.05
		c1.49,1.87,2.86,3.83,4.11,5.88c5.32,8.72,8.39,18.97,8.39,29.93c0,10.9-3.03,21.09-8.3,29.78
		C136.29,163.25,141.87,168.19,148.31,171.77z"/>
</g>
</svg>
